<?xml version="1.0" encoding="UTF-8" standalone="no"?>
<!DOCTYPE svg PUBLIC "-//W3C//DTD SVG 1.1//EN" "http://www.w3.org/Graphics/SVG/1.1/DTD/svg11.dtd">
<svg version="1.1" xmlns="http://www.w3.org/2000/svg" xmlns:xlink="http://www.w3.org/1999/xlink" preserveAspectRatio="xMidYMid meet" viewBox="0 0 640 640" width="640" height="640"><defs><path d="M632 320C632 492.2 492.2 632 320 632C147.8 632 8 492.2 8 320C8 147.8 147.8 8 320 8C492.2 8 632 147.8 632 320Z" id="ad7YY9ljh"></path><path d="M264.37 175.76C262.69 183.68 262.43 187.9 262.08 216.4C262.05 218.52 261.9 229.17 261.63 248.32L238.82 248.32L216 248.32L216 284.38L216 320.44L238.73 320.44L261.55 320.44C261.86 333.21 262.04 340.3 262.08 341.72C262.43 353.42 262.69 400.12 262.69 445.5C262.69 451 262.69 478.5 262.69 528L309.03 528L355.46 528L354.75 423.78L354.14 319.56L384.97 319.56L415.81 319.56C416.12 317.56 416.3 316.44 416.34 316.22C416.6 314.46 418.19 300.12 419.95 284.38C421.62 268.64 423.21 254.13 423.47 252.02C423.51 251.77 423.68 250.54 424 248.32L389.11 248.32L354.23 248.32C354.38 233.12 354.47 224.68 354.49 222.99C354.75 198.89 354.84 197.57 356.69 194.06C361.45 185.35 366.56 184.03 398.19 183.5C399.84 183.47 408.12 183.33 423.03 183.06L423.03 147.53L423.03 112C400.99 112.05 388.74 112.08 386.29 112.09C366.03 112.18 346.3 112.53 342.42 112.97C297.58 117.72 272.74 137.68 264.37 175.76Z" id="a4fdUT94of"></path></defs><g><g><g><g><use xlink:href="#ad7YY9ljh" opacity="1" fill="#ff0000" fill-opacity="1"></use></g><g><use xlink:href="#a4fdUT94of" opacity="1" fill="#ffffff" fill-opacity="1"></use><g><use xlink:href="#a4fdUT94of" opacity="1" fill-opacity="0" stroke="#000000" stroke-width="1" stroke-opacity="0"></use></g></g></g></g></g></svg>