<?xml version="1.0" encoding="UTF-8" standalone="no"?>
<!DOCTYPE svg PUBLIC "-//W3C//DTD SVG 1.1//EN" "http://www.w3.org/Graphics/SVG/1.1/DTD/svg11.dtd">
<svg version="1.1" xmlns="http://www.w3.org/2000/svg" xmlns:xlink="http://www.w3.org/1999/xlink" preserveAspectRatio="xMidYMid meet" viewBox="0 0 640 640" width="640" height="640"><defs><path d="M632 320C632 492.2 492.2 632 320 632C147.8 632 8 492.2 8 320C8 147.8 147.8 8 320 8C492.2 8 632 147.8 632 320Z" id="c3id7gI8o7"></path><path d="M341.56 218.19C335.54 231.13 333.61 241.59 334.14 257.55C334.18 258.49 334.36 263.2 334.68 271.68C329.26 271.16 326.26 270.87 325.66 270.81C267.96 265.75 214.89 238.89 176.11 195.11C170.84 189.07 165.58 183.03 164.5 181.73C164.37 181.56 163.69 180.7 162.46 179.14C160.79 182.31 159.85 184.08 159.67 184.43C151.18 200.07 147.96 223.04 151.72 242.02C155.16 258.95 167.08 278.8 179.54 288.29C182.23 290.34 184.59 292.38 184.59 292.71C184.7 294.65 165.58 289.8 155.91 285.48C152.58 284.08 149.46 282.89 148.93 282.89C147.53 282.89 149.03 298.1 151.4 307.27C156.02 325.82 169.45 344.69 185.99 356.12C192.01 360.22 202.86 365.29 207.91 366.48C209.84 366.8 211.67 367.55 211.99 368.09C212.85 369.5 199.42 370.57 187.6 370.03C186.89 370 183.35 369.82 176.97 369.5C177.35 371.18 177.57 372.11 177.61 372.3C178.79 377.8 185.88 390.85 190.93 397.21C205.22 415.11 225.1 426.22 247.44 429.03C247.84 429.08 249.85 429.33 253.46 429.78C250.04 432.31 248.14 433.71 247.76 433.99C239.38 440.03 218.76 450.38 207.69 454.16C188.35 460.73 177.93 462.35 152.15 462.35C139.36 462.46 129.16 462.78 129.59 463.11C135.17 468.39 161.92 482.2 178.47 488.24C219.19 503.33 269.04 507 313.51 497.94C372.71 485.97 429.01 447.68 463.39 396.13C470.69 385.13 482.72 360.76 488.1 346.2C496.48 323.12 500.88 301.34 502.71 273.73C503.89 257.12 504.21 255.28 506.25 253.77C510.44 250.86 523.55 239.32 528.81 233.82C535.15 227.46 545.57 214.84 545.57 213.76C545.57 213.33 542.14 214.09 538.05 215.6C528.92 218.72 511.62 223.15 504.21 224.22C503.85 224.27 502.06 224.48 498.84 224.87C501.74 222.8 503.35 221.65 503.67 221.42C516.67 211.93 524.73 202.65 531.18 189.71C533.76 184.43 535.8 179.9 535.58 179.68C535.37 179.47 531.61 180.98 527.2 183.03C515.6 188.31 504.64 192.09 492.5 195C491.8 195.17 488.29 196.03 481.97 197.59C477.52 193.57 475.05 191.35 474.56 190.9C465.53 182.6 453.07 175.8 441.79 172.78C432.34 170.3 412.68 169.22 404.62 170.73C377.12 175.8 352.73 194.03 341.56 218.19Z" id="a99IRqnMVM"></path></defs><g><g><g><g><use xlink:href="#c3id7gI8o7" opacity="1" fill="#ff0000" fill-opacity="1"></use></g><g><use xlink:href="#a99IRqnMVM" opacity="1" fill="#ffffff" fill-opacity="1"></use><g><use xlink:href="#a99IRqnMVM" opacity="1" fill-opacity="0" stroke="#000000" stroke-width="1" stroke-opacity="0"></use></g></g></g></g></g></svg>